<!DOCTYPE svg PUBLIC "-//W3C//DTD SVG 20010904//EN" "http://www.w3.org/TR/2001/REC-SVG-20010904/DTD/svg10.dtd">
<svg version="1.0" xmlns="http://www.w3.org/2000/svg" width="674px" height="676px" viewBox="0 0 6740 6760" preserveAspectRatio="xMidYMid meet">
<g id="layer101" fill="#010101" stroke="none">
 <path d="M1930 4338 c0 -13 9 -59 19 -103 26 -111 32 -173 22 -219 -12 -48 -26 -65 -43 -48 -19 19 -28 14 -28 -15 0 -14 -7 -34 -15 -43 -14 -16 -23 -15 -123 11 -59 16 -121 28 -139 29 -25 0 -41 11 -82 57 -28 32 -57 72 -63 90 -15 41 -42 45 -34 6 2 -16 8 -46 11 -68 9 -55 38 -107 79 -141 61 -51 120 -91 174 -118 44 -22 51 -30 42 -41 -19 -23 -5 -41 47 -61 66 -24 71 -29 89 -91 14 -50 14 -56 0 -72 -18 -20 -21 -51 -6 -51 16 0 12 -23 -20 -123 -31 -97 -52 -127 -88 -127 -11 0 -24 -4 -27 -10 -3 -5 -1 -10 6 -10 19 0 3 -79 -22 -106 -12 -13 -36 -26 -53 -29 -19 -4 -63 -34 -111 -76 -44 -39 -97 -80 -117 -92 -31 -18 -39 -29 -44 -65 -14 -95 18 -216 95 -350 47 -83 64 -81 35 6 -28 79 -30 137 -8 191 23 59 176 191 221 191 11 0 -6 -108 -22 -139 -9 -18 -28 -37 -43 -43 l-27 -12 34 -4 c27 -3 42 4 80 36 38 32 70 76 83 114 2 4 38 -1 80 -11 l78 -18 21 44 c31 64 78 96 149 101 42 3 65 0 80 -11 21 -14 25 -14 52 6 35 26 150 35 216 18 58 -16 110 -63 118 -109 4 -20 20 -66 36 -101 16 -35 33 -83 39 -107 6 -24 15 -44 20 -44 4 0 17 29 28 64 16 53 18 75 11 128 -5 34 -10 113 -10 173 0 106 2 114 34 183 19 39 60 109 90 156 31 46 56 93 56 105 0 29 35 119 55 141 29 32 -1 30 -40 -3 -37 -30 -44 -32 -120 -32 -72 0 -86 3 -124 28 -50 33 -73 83 -118 249 l-16 57 -38 -19 c-71 -37 -144 -22 -217 44 -22 20 -46 36 -53 36 -8 0 -33 9 -56 19 -53 25 -75 65 -100 193 -19 91 -23 101 -73 158 -54 62 -96 100 -111 100 -5 0 -9 -10 -9 -22z m420 -744 c19 -4 45 -17 57 -29 12 -12 39 -27 60 -33 24 -7 70 -42 127 -94 l89 -83 -45 -70 c-25 -39 -50 -84 -56 -102 -10 -29 -9 -32 11 -35 17 -2 23 -11 25 -36 6 -60 0 -63 -65 -40 -83 29 -179 35 -254 14 -33 -10 -63 -15 -66 -13 -2 3 -7 24 -10 46 -3 23 -8 41 -11 41 -2 0 -23 -16 -45 -36 -42 -38 -100 -68 -154 -78 -37 -6 -40 1 -18 44 8 16 28 69 44 117 23 66 35 89 49 91 17 3 20 14 24 79 5 68 8 79 33 101 27 22 38 23 78 7 30 -12 20 37 -23 119 l-40 75 77 -40 c43 -21 93 -42 113 -45z"/>
 <path d="M4698 4330 c-49 -72 -88 -227 -88 -348 0 -66 -24 -121 -82 -186 -44 -51 -84 -76 -120 -76 -13 0 -52 9 -88 20 -61 19 -66 19 -77 3 -7 -9 -13 -42 -13 -72 0 -69 -29 -135 -91 -208 -24 -28 -62 -84 -84 -124 -49 -89 -80 -109 -173 -116 -69 -5 -92 -19 -92 -55 0 -11 11 -23 28 -29 15 -6 37 -20 49 -31 13 -12 29 -18 39 -14 13 5 15 2 10 -18 -9 -37 9 -76 36 -76 34 0 44 11 52 53 13 69 101 145 153 132 20 -5 24 -11 19 -28 -22 -89 -12 -232 21 -307 l16 -35 8 42 c17 90 74 153 137 153 61 0 109 -19 137 -52 l27 -32 18 24 c15 20 23 22 61 16 64 -10 129 -42 174 -85 42 -40 85 -67 85 -54 0 5 -4 23 -10 42 -11 38 -5 55 15 44 7 -5 40 -42 73 -84 60 -76 114 -124 125 -112 3 3 -5 20 -19 39 -30 38 -47 144 -23 144 24 0 114 -105 154 -180 37 -71 39 -80 39 -167 1 -57 5 -92 11 -90 6 1 24 30 40 62 30 59 30 62 27 200 -2 103 -7 146 -18 163 -8 13 -66 61 -129 107 -95 71 -117 93 -139 137 -14 28 -26 58 -26 65 0 16 -12 17 -28 1 -29 -29 -101 53 -102 115 0 14 -5 17 -22 12 -36 -11 -66 -33 -85 -62 -17 -25 -16 -27 26 -105 23 -44 40 -82 37 -85 -3 -3 -24 6 -47 21 -38 26 -42 26 -64 12 -34 -22 -58 -20 -102 10 -21 14 -51 28 -67 31 -30 6 -42 22 -111 152 -22 41 -45 76 -51 78 -6 2 -14 -10 -18 -27 l-6 -32 -25 30 c-29 34 -31 42 -11 42 15 0 96 86 96 101 0 5 15 9 34 9 29 0 34 4 42 33 8 27 15 33 49 38 22 4 71 23 109 43 55 29 79 36 125 36 64 0 84 -10 79 -36 -2 -12 -24 -25 -66 -40 -35 -12 -74 -32 -87 -44 -32 -30 -75 -117 -75 -149 1 -24 6 -21 59 36 55 59 61 63 122 72 100 16 170 -13 264 -108 42 -44 55 -51 88 -51 49 0 90 -21 151 -78 27 -26 51 -41 53 -35 8 23 -28 73 -89 125 -131 111 -225 228 -250 310 -12 39 -11 42 18 65 16 13 53 39 82 59 55 37 72 63 103 152 20 58 27 212 10 212 -5 0 -21 -36 -37 -81 -42 -122 -115 -186 -232 -205 l-42 -7 -21 48 c-18 41 -24 46 -45 41 -20 -5 -27 0 -45 36 -45 89 -71 182 -77 283 -7 98 -7 100 -24 75z"/>
 <path d="M2655 4114 c-14 -112 10 -210 61 -249 19 -15 46 -44 61 -66 15 -23 34 -39 45 -39 16 0 19 -5 14 -25 -4 -14 -4 -25 -1 -25 3 0 54 25 114 55 91 45 123 56 193 65 45 5 110 15 143 20 179 30 351 22 481 -21 72 -23 157 -75 152 -91 -3 -7 -54 -25 -114 -40 -126 -33 -196 -33 -263 1 -32 17 -46 19 -56 11 -10 -8 -32 -6 -87 11 -93 27 -188 37 -188 19 0 -7 8 -18 17 -25 16 -12 16 -19 -6 -109 -20 -82 -27 -100 -54 -121 l-32 -24 -13 24 c-16 32 -32 32 -32 0 0 -63 -73 -215 -143 -299 -65 -78 -87 -127 -87 -196 0 -48 6 -66 44 -130 41 -71 123 -160 146 -160 16 0 12 9 -27 63 -33 45 -38 59 -41 119 -4 62 -2 72 24 111 16 23 35 55 42 72 17 39 60 95 74 95 7 0 8 -21 3 -65 -3 -36 -3 -65 2 -65 15 0 94 83 120 127 13 24 30 43 36 43 6 0 30 -18 53 -41 l41 -40 11 44 c8 30 23 55 48 77 36 31 39 32 114 28 l78 -3 38 43 c30 34 49 46 84 52 72 14 111 11 157 -11 24 -12 47 -19 50 -15 11 11 -31 88 -61 111 -17 13 -52 33 -77 43 -26 11 -50 25 -53 31 -10 16 -36 13 -36 -4 0 -8 -5 -26 -12 -40 -11 -24 -15 -25 -98 -25 -82 0 -90 -2 -125 -30 l-38 -30 -22 20 -23 21 -6 -24 c-5 -21 -42 -47 -66 -47 -5 0 0 24 11 53 15 36 20 66 16 100 -4 44 -3 47 17 41 12 -3 40 -16 62 -29 27 -14 47 -19 55 -14 8 5 63 25 122 44 107 35 111 36 225 29 65 -4 124 -10 132 -14 8 -4 33 -11 55 -14 l40 -7 13 53 c6 29 25 69 42 89 30 38 54 118 48 161 -3 22 -8 23 -106 28 -91 4 -105 8 -120 27 -9 12 -43 31 -74 43 -57 21 -88 49 -88 80 0 19 -67 120 -80 120 -6 0 -10 -10 -10 -23 0 -50 -22 -63 -140 -82 -136 -22 -223 -17 -288 17 -37 19 -52 22 -65 14 -12 -8 -33 -6 -77 5 -59 15 -60 15 -66 -5 -10 -33 -35 -56 -61 -56 -19 0 -23 -5 -23 -29 0 -33 -13 -46 -55 -54 -25 -4 -37 2 -77 39 -26 24 -54 44 -62 44 -9 0 -31 14 -50 31 -26 23 -37 41 -42 75 -9 63 -30 57 -39 -12z"/>
 </g>

</svg>